<svg xmlns="http://www.w3.org/2000/svg" fill="none" viewBox="0 0 200 67" height="67" width="200">
<path fill="url(#paint0_linear_397_870)" d="M47.2849 60.7065L47.1589 60.7697C32.2938 68.1402 14.3911 62.5677 6.5362 48.3106C6.47347 48.1961 6.4111 48.0812 6.34907 47.966C6.22572 47.7348 6.10496 47.5015 5.98679 47.2661C5.86861 47.0306 5.75373 46.7943 5.64213 46.5573C5.58668 46.4385 5.53187 46.3198 5.47768 46.2014C-1.25886 31.3835 4.97658 13.7078 19.7752 6.20466L19.9011 6.14151C33.3619 -0.607862 49.3503 3.29035 58.1154 14.6643C49.078 2.83359 32.6257 -1.29149 18.8237 5.62901C3.21393 13.4559 -3.0941 32.4455 4.73362 48.043C12.5613 63.6406 31.5606 69.9397 47.1696 62.1132C62.7785 54.2867 69.0875 35.2972 61.2596 19.6992L61.2295 19.6392C68.747 34.6961 62.5126 53.0712 47.2849 60.7065Z"></path>
<path fill="#7F7F7F" d="M47.1578 60.77L47.0318 60.8331C32.2789 68.2304 14.4078 62.611 6.53564 48.31C14.3899 62.568 32.2926 68.1405 47.1578 60.77Z" opacity="0.56"></path>
<path fill="#7F7F7F" d="M5.47583 46.2018C-1.28555 31.3438 4.8934 13.6655 19.6463 6.2682L19.7723 6.20505C4.97473 13.7082 -1.26093 31.3835 5.47583 46.2018Z" opacity="0.56"></path>
<path fill="white" d="M63.3946 27.8078C66.5559 44.3197 55.739 60.271 39.2178 63.5053C22.9068 66.5466 7.1999 56.3068 3.52694 40.4489C3.49779 40.3216 3.46908 40.1941 3.44079 40.0664C3.38509 39.8104 3.33246 39.553 3.28292 39.2942C3.23338 39.0355 3.18721 38.7768 3.14442 38.5184C3.12346 38.3889 3.10305 38.2598 3.08319 38.1311C0.639074 22.0383 11.4548 6.73045 27.7379 3.5435C44.2881 0.460796 60.2333 11.2958 63.3946 27.8078Z"></path>
<path fill="#086B92" d="M108.662 41.6616H104.412V43.9475H108.325C108.611 43.9475 108.828 44.0127 108.97 44.1395C109.111 44.2699 109.183 44.4402 109.183 44.6503C109.183 44.8604 109.115 45.0343 108.973 45.1684C108.836 45.3024 108.618 45.3676 108.325 45.3676H104.412V48.0158H108.81C109.107 48.0158 109.332 48.0846 109.48 48.2223C109.633 48.3599 109.705 48.5447 109.705 48.7729C109.705 49.0012 109.629 49.1714 109.48 49.3091C109.332 49.4467 109.107 49.5156 108.81 49.5156H103.684C103.275 49.5156 102.978 49.425 102.797 49.2439C102.615 49.0627 102.525 48.7657 102.525 48.3599V41.3573C102.525 41.0856 102.565 40.8646 102.644 40.6943C102.724 40.5241 102.851 40.3973 103.021 40.3212C103.191 40.2415 103.412 40.2053 103.681 40.2053H108.662C108.962 40.2053 109.187 40.2705 109.332 40.4045C109.477 40.5386 109.553 40.7125 109.553 40.9298C109.553 41.1472 109.48 41.3283 109.332 41.4587C109.187 41.5928 108.962 41.658 108.662 41.658V41.6616Z"></path>
<path fill="#086B92" d="M111.5 47.7113L113.583 44.6682L111.83 41.9621C111.663 41.6976 111.54 41.473 111.457 41.2846C111.373 41.0962 111.333 40.9151 111.333 40.7412C111.333 40.5673 111.413 40.4043 111.572 40.263C111.732 40.1217 111.924 40.0493 112.156 40.0493C112.417 40.0493 112.623 40.1254 112.768 40.2811C112.913 40.4369 113.116 40.7231 113.377 41.1433L114.775 43.4039L116.268 41.1433C116.391 40.9513 116.496 40.7883 116.583 40.6543C116.67 40.5202 116.753 40.4079 116.833 40.3174C116.912 40.2268 117.003 40.1616 117.101 40.1181C117.202 40.0746 117.314 40.0529 117.448 40.0529C117.684 40.0529 117.88 40.1254 118.028 40.2666C118.18 40.4079 118.253 40.5782 118.253 40.7702C118.253 41.0528 118.09 41.4404 117.764 41.9258L115.927 44.6718L117.901 47.7149C118.079 47.983 118.209 48.2039 118.289 48.3778C118.369 48.5553 118.408 48.7184 118.408 48.8778C118.408 49.0263 118.372 49.1603 118.3 49.2835C118.227 49.4067 118.126 49.5045 117.996 49.5769C117.865 49.6494 117.717 49.6856 117.55 49.6856C117.372 49.6856 117.22 49.6494 117.101 49.5733C116.978 49.5009 116.88 49.4067 116.804 49.298C116.728 49.1893 116.586 48.9756 116.376 48.6568L114.735 46.0774L112.996 48.7329C112.862 48.943 112.764 49.0915 112.706 49.1784C112.648 49.2618 112.58 49.3451 112.5 49.4248C112.42 49.5045 112.322 49.5697 112.214 49.6168C112.105 49.6639 111.975 49.6856 111.826 49.6856C111.598 49.6856 111.409 49.6168 111.257 49.4755C111.109 49.3342 111.033 49.1313 111.033 48.8669C111.033 48.5517 111.188 48.1713 111.496 47.7185L111.5 47.7113Z"></path>
<path fill="#086B92" d="M126.404 41.7629H124.347V48.5301C124.347 48.9213 124.26 49.2075 124.086 49.3959C123.912 49.5843 123.687 49.6784 123.412 49.6784C123.137 49.6784 122.905 49.5843 122.731 49.3923C122.553 49.2003 122.467 48.9141 122.467 48.5264V41.7593H120.409C120.086 41.7593 119.847 41.6868 119.692 41.5455C119.536 41.4042 119.456 41.2159 119.456 40.984C119.456 40.7521 119.536 40.5529 119.702 40.4116C119.865 40.2703 120.101 40.2015 120.412 40.2015H126.408C126.734 40.2015 126.977 40.274 127.136 40.4189C127.296 40.5638 127.375 40.7521 127.375 40.984C127.375 41.2159 127.296 41.4042 127.133 41.5455C126.97 41.6868 126.73 41.7593 126.408 41.7593L126.404 41.7629Z"></path>
<path fill="#086B92" d="M131.671 45.5376H131.012V48.53C131.012 48.9248 130.925 49.2146 130.751 49.3994C130.577 49.5842 130.349 49.6783 130.07 49.6783C129.769 49.6783 129.537 49.5805 129.371 49.3849C129.204 49.1893 129.125 48.9031 129.125 48.5263V41.3607C129.125 40.9549 129.215 40.6615 129.396 40.4767C129.577 40.2956 129.874 40.205 130.28 40.205H133.349C133.772 40.205 134.135 40.2231 134.435 40.2594C134.736 40.2956 135.008 40.368 135.247 40.4767C135.54 40.5999 135.797 40.7738 136.022 41.0056C136.247 41.2339 136.417 41.5019 136.533 41.8026C136.649 42.1069 136.707 42.4257 136.707 42.7663C136.707 43.4618 136.511 44.0161 136.12 44.4291C135.729 44.8457 135.135 45.1391 134.338 45.313C134.671 45.4905 134.993 45.755 135.298 46.0991C135.602 46.4469 135.874 46.8164 136.113 47.2077C136.352 47.5989 136.537 47.9539 136.671 48.2691C136.805 48.5843 136.87 48.8017 136.87 48.9212C136.87 49.0408 136.83 49.1675 136.754 49.2871C136.674 49.4066 136.569 49.5045 136.431 49.5733C136.294 49.6421 136.138 49.6783 135.961 49.6783C135.747 49.6783 135.569 49.6276 135.428 49.5298C135.283 49.432 135.16 49.3052 135.055 49.1531C134.95 49.0009 134.809 48.7763 134.631 48.4792L133.874 47.2222C133.602 46.7621 133.359 46.4107 133.146 46.168C132.932 45.9252 132.715 45.7622 132.494 45.6717C132.273 45.5811 131.994 45.5376 131.66 45.5376H131.671ZM132.751 41.6251H131.012V44.1864H132.7C133.153 44.1864 133.533 44.1465 133.845 44.0704C134.153 43.9907 134.388 43.8603 134.555 43.6719C134.718 43.4836 134.798 43.2227 134.798 42.8931C134.798 42.6358 134.732 42.4076 134.602 42.2084C134.472 42.0127 134.287 41.8642 134.055 41.7664C133.834 41.6722 133.399 41.6251 132.751 41.6251Z"></path>
<path fill="#086B92" d="M145.103 48.4685L144.657 47.2984H140.871L140.426 48.4939C140.252 48.9612 140.103 49.2728 139.98 49.4358C139.857 49.5988 139.658 49.6821 139.375 49.6821C139.136 49.6821 138.93 49.5952 138.745 49.4213C138.564 49.2474 138.473 49.0518 138.473 48.8308C138.473 48.704 138.495 48.5736 138.535 48.4359C138.578 48.3019 138.647 48.1135 138.745 47.8708L141.129 41.8209C141.197 41.647 141.277 41.4405 141.375 41.1942C141.469 40.9514 141.571 40.7486 141.679 40.5856C141.788 40.4262 141.929 40.2957 142.103 40.1943C142.281 40.0965 142.494 40.0458 142.755 40.0458C143.016 40.0458 143.237 40.0965 143.411 40.1943C143.585 40.2921 143.73 40.4225 143.838 40.5783C143.947 40.7341 144.038 40.9044 144.11 41.0819C144.182 41.263 144.277 41.5021 144.393 41.8028L146.827 47.8128C147.019 48.2693 147.113 48.6026 147.113 48.8091C147.113 49.0155 147.023 49.222 146.845 49.4032C146.664 49.5843 146.447 49.6749 146.193 49.6749C146.045 49.6749 145.918 49.6495 145.813 49.5952C145.708 49.5408 145.617 49.472 145.545 49.3778C145.472 49.2872 145.396 49.146 145.313 48.9576C145.229 48.7692 145.161 48.6026 145.099 48.4577L145.103 48.4685ZM141.368 45.8819H144.15L142.744 42.0383L141.364 45.8819H141.368Z"></path>
<path fill="#086B92" d="M156.764 46.5812C156.764 46.8783 156.692 47.1971 156.543 47.5448C156.398 47.889 156.167 48.2295 155.855 48.5628C155.543 48.8961 155.141 49.1642 154.656 49.3743C154.167 49.5808 153.602 49.6858 152.953 49.6858C152.461 49.6858 152.015 49.6388 151.613 49.5446C151.211 49.4504 150.845 49.3055 150.515 49.1098C150.186 48.9142 149.885 48.6534 149.61 48.331C149.363 48.0375 149.153 47.7115 148.979 47.3492C148.805 46.9869 148.675 46.5993 148.588 46.19C148.501 45.7806 148.458 45.3422 148.458 44.8822C148.458 44.1323 148.566 43.4621 148.784 42.868C149.001 42.2738 149.312 41.7667 149.722 41.3464C150.131 40.9262 150.606 40.6038 151.153 40.3828C151.7 40.1618 152.283 40.0531 152.899 40.0531C153.652 40.0531 154.323 40.2053 154.913 40.506C155.504 40.8066 155.953 41.1798 156.268 41.6217C156.583 42.0637 156.739 42.4839 156.739 42.8752C156.739 43.0926 156.663 43.2809 156.511 43.4476C156.359 43.6142 156.174 43.6939 155.956 43.6939C155.714 43.6939 155.533 43.636 155.413 43.5237C155.294 43.4077 155.156 43.2121 155.011 42.9332C154.765 42.4731 154.475 42.1253 154.145 41.8971C153.815 41.6688 153.402 41.5529 152.917 41.5529C152.142 41.5529 151.526 41.8464 151.066 42.4369C150.606 43.0273 150.378 43.8606 150.378 44.9474C150.378 45.6719 150.479 46.2733 150.682 46.7551C150.885 47.2369 151.175 47.5956 151.544 47.831C151.914 48.0665 152.352 48.1861 152.852 48.1861C153.395 48.1861 153.852 48.052 154.228 47.7839C154.605 47.5159 154.884 47.121 155.076 46.5993C155.156 46.353 155.257 46.1537 155.373 45.998C155.493 45.8422 155.681 45.7661 155.946 45.7661C156.17 45.7661 156.362 45.8458 156.525 46.0016C156.685 46.1574 156.768 46.353 156.768 46.5848L156.764 46.5812Z"></path>
<path fill="#086B92" d="M165.157 41.7629H163.1V48.5301C163.1 48.9213 163.013 49.2075 162.839 49.3959C162.665 49.5843 162.44 49.6784 162.165 49.6784C161.89 49.6784 161.658 49.5843 161.484 49.3923C161.31 49.2003 161.219 48.9141 161.219 48.5264V41.7593H159.162C158.839 41.7593 158.6 41.6868 158.444 41.5455C158.289 41.4042 158.209 41.2159 158.209 40.984C158.209 40.7521 158.292 40.5529 158.455 40.4116C158.618 40.2703 158.854 40.2015 159.165 40.2015H165.165C165.491 40.2015 165.733 40.274 165.893 40.4189C166.052 40.5638 166.132 40.7521 166.132 40.984C166.132 41.2159 166.052 41.4042 165.889 41.5455C165.73 41.6868 165.487 41.7593 165.165 41.7593L165.157 41.7629Z"></path>
<path fill="#086B92" d="M82.242 31L79.7279 21.6752L77.1812 31C76.9819 31.7064 76.8261 32.2136 76.7102 32.5215C76.5943 32.8294 76.3914 33.1047 76.1016 33.3475C75.8118 33.5902 75.4242 33.7134 74.946 33.7134C74.5584 33.7134 74.2359 33.6409 73.986 33.496C73.736 33.3511 73.5331 33.1446 73.3773 32.8801C73.2216 32.6157 73.0948 32.3005 72.997 31.9346C72.8992 31.5723 72.8086 31.2318 72.7325 30.9203L70.1459 20.4507C69.9901 19.8421 69.9141 19.3784 69.9141 19.0596C69.9141 18.6575 70.0553 18.3169 70.3379 18.0416C70.6205 17.7663 70.9719 17.6286 71.3885 17.6286C71.9609 17.6286 72.3449 17.8134 72.5441 18.1793C72.7434 18.5488 72.9173 19.0813 73.0658 19.7805L75.1018 28.859L77.3804 20.3638C77.5507 19.7117 77.7028 19.219 77.8369 18.8785C77.9709 18.5379 78.1919 18.2445 78.4962 17.9981C78.8005 17.7518 79.2135 17.6286 79.7388 17.6286C80.2641 17.6286 80.6807 17.7591 80.9741 18.0163C81.2675 18.2735 81.4704 18.556 81.5827 18.8603C81.695 19.1646 81.8472 19.6682 82.0392 20.3674L84.3396 28.8626L86.3755 19.7841C86.4734 19.3096 86.5675 18.94 86.6581 18.672C86.745 18.4039 86.8972 18.1612 87.1146 17.9511C87.3283 17.7373 87.6435 17.6323 88.0529 17.6323C88.4622 17.6323 88.81 17.7699 89.0962 18.0416C89.3824 18.3133 89.5273 18.6539 89.5273 19.0668C89.5273 19.3567 89.4512 19.8204 89.2954 20.4579L86.7088 30.9275C86.5313 31.6339 86.3864 32.152 86.2705 32.4816C86.1545 32.8113 85.9553 33.0975 85.6764 33.3475C85.3974 33.5938 85.0025 33.717 84.4917 33.717C84.0099 33.717 83.6259 33.5974 83.3361 33.3547C83.0463 33.1156 82.8434 32.8439 82.7311 32.5432C82.6188 32.2425 82.4594 31.7281 82.2529 31H82.242Z"></path>
<path fill="#086B92" d="M102.942 20.3314H95.8449V24.1497H102.38C102.862 24.1497 103.221 24.2584 103.456 24.4721C103.692 24.6895 103.811 24.972 103.811 25.3271C103.811 25.6821 103.695 25.9683 103.463 26.1929C103.232 26.4139 102.869 26.5262 102.38 26.5262H95.8449V30.9495H103.184C103.681 30.9495 104.05 31.0654 104.304 31.2936C104.557 31.5219 104.681 31.8298 104.681 32.2102C104.681 32.5905 104.554 32.8767 104.304 33.105C104.054 33.3332 103.681 33.4491 103.184 33.4491H94.624C93.9393 33.4491 93.4467 33.297 93.146 32.9927C92.8453 32.6884 92.6968 32.1957 92.6968 31.5182V19.8315C92.6968 19.3786 92.7656 19.0091 92.8996 18.7229C93.0337 18.4367 93.2438 18.2266 93.53 18.0962C93.8162 17.9658 94.1821 17.9006 94.6277 17.9006H102.945C103.449 17.9006 103.822 18.0129 104.065 18.2338C104.307 18.4548 104.431 18.7483 104.431 19.1105C104.431 19.4728 104.307 19.7735 104.065 19.9945C103.822 20.2155 103.449 20.3278 102.945 20.3278L102.942 20.3314Z"></path>
<path fill="#086B92" d="M111.314 19.5453V30.8625H117.697C118.208 30.8625 118.596 30.9857 118.871 31.232C119.143 31.4784 119.28 31.7899 119.28 32.1667C119.28 32.5435 119.146 32.8586 118.878 33.0941C118.61 33.3296 118.219 33.4491 117.701 33.4491H110.097C109.412 33.4491 108.919 33.297 108.619 32.9927C108.318 32.6884 108.169 32.1957 108.169 31.5182V19.5416C108.169 18.904 108.311 18.4295 108.601 18.1107C108.89 17.7919 109.263 17.6325 109.731 17.6325C110.198 17.6325 110.589 17.7883 110.883 18.1034C111.176 18.4186 111.321 18.8968 111.321 19.5416L111.314 19.5453Z"></path>
<path fill="#086B92" d="M125.519 19.545V30.8623H131.906C132.413 30.8623 132.804 30.9854 133.076 31.2318C133.347 31.4781 133.485 31.7897 133.485 32.1664C133.485 32.5432 133.351 32.8584 133.083 33.0938C132.815 33.3293 132.42 33.4488 131.906 33.4488H124.302C123.617 33.4488 123.12 33.2967 122.82 32.9924C122.519 32.6881 122.371 32.1954 122.371 31.518V19.5414C122.371 18.9038 122.516 18.4292 122.802 18.1104C123.088 17.7916 123.465 17.6322 123.932 17.6322C124.399 17.6322 124.791 17.788 125.084 18.1032C125.377 18.4183 125.522 18.8965 125.522 19.5414L125.519 19.545Z"></path>
<path fill="#086B92" d="M140.745 19.5235L146.802 28.6889V19.4401C146.802 18.8388 146.932 18.3896 147.189 18.0889C147.447 17.7882 147.794 17.6397 148.233 17.6397C148.671 17.6397 149.04 17.7882 149.305 18.0889C149.566 18.3896 149.696 18.8388 149.696 19.4401V31.6703C149.696 33.0361 149.131 33.7171 147.997 33.7171C147.715 33.7171 147.461 33.6773 147.233 33.594C147.008 33.5143 146.794 33.3839 146.595 33.2063C146.396 33.0288 146.215 32.8223 146.045 32.5869C145.874 32.3514 145.704 32.1087 145.534 31.8587L139.625 22.802V31.913C139.625 32.5072 139.487 32.9564 139.212 33.2607C138.937 33.565 138.582 33.7171 138.151 33.7171C137.72 33.7171 137.35 33.565 137.078 33.2571C136.807 32.9491 136.676 32.5035 136.676 31.9167V19.922C136.676 19.4112 136.734 19.0127 136.847 18.7228C136.981 18.4041 137.205 18.1432 137.513 17.944C137.825 17.7411 138.162 17.6433 138.52 17.6433C138.803 17.6433 139.046 17.6904 139.245 17.7809C139.448 17.8715 139.622 17.9983 139.774 18.1505C139.926 18.3062 140.082 18.5091 140.241 18.7555C140.4 19.0018 140.563 19.2626 140.734 19.5307L140.745 19.5235Z"></path>
<path fill="#086B92" d="M164.434 20.3314H157.337V24.1498H163.872C164.354 24.1498 164.713 24.2584 164.948 24.4722C165.184 24.6895 165.303 24.9721 165.303 25.3271C165.303 25.6821 165.187 25.9683 164.956 26.1929C164.724 26.4139 164.361 26.5262 163.872 26.5262H157.337V30.9495H164.677C165.173 30.9495 165.542 31.0655 165.796 31.2937C166.05 31.5219 166.173 31.8298 166.173 32.2102C166.173 32.5906 166.046 32.8768 165.796 33.105C165.546 33.3333 165.173 33.4492 164.677 33.4492H156.116C155.432 33.4492 154.939 33.297 154.638 32.9927C154.337 32.6884 154.189 32.1957 154.189 31.5183V19.8315C154.189 19.3787 154.258 19.0092 154.392 18.723C154.526 18.4368 154.736 18.2267 155.022 18.0962C155.308 17.9658 155.674 17.9006 156.12 17.9006H164.438C164.941 17.9006 165.314 18.0129 165.557 18.2339C165.8 18.4549 165.923 18.7483 165.923 19.1106C165.923 19.4729 165.8 19.7735 165.557 19.9945C165.314 20.2155 164.941 20.3278 164.438 20.3278L164.434 20.3314Z"></path>
<path fill="#086B92" d="M181.533 28.783C181.533 29.7249 181.29 30.5689 180.805 31.3188C180.319 32.0687 179.613 32.6556 178.678 33.0795C177.743 33.5033 176.639 33.7171 175.36 33.7171C173.824 33.7171 172.559 33.4272 171.563 32.8476C170.857 32.431 170.281 31.8731 169.839 31.1775C169.397 30.482 169.176 29.8046 169.176 29.1452C169.176 28.7648 169.31 28.4352 169.574 28.1635C169.839 27.8918 170.176 27.7541 170.589 27.7541C170.922 27.7541 171.201 27.8592 171.433 28.0729C171.661 28.2866 171.86 28.5982 172.02 29.0184C172.215 29.5147 172.433 29.9277 172.661 30.261C172.889 30.5943 173.215 30.866 173.632 31.0834C174.048 31.3007 174.595 31.4058 175.276 31.4058C176.211 31.4058 176.968 31.1884 177.551 30.7537C178.135 30.319 178.428 29.7756 178.428 29.1271C178.428 28.6127 178.269 28.1925 177.957 27.87C177.642 27.5476 177.236 27.3013 176.736 27.1346C176.236 26.9644 175.57 26.7832 174.737 26.5949C173.621 26.334 172.686 26.0261 171.933 25.6783C171.179 25.3269 170.581 24.8523 170.139 24.2474C169.697 23.6424 169.476 22.8925 169.476 21.994C169.476 21.0956 169.708 20.3783 170.176 19.7154C170.643 19.0524 171.317 18.5416 172.201 18.183C173.085 17.8243 174.124 17.6468 175.32 17.6468C176.273 17.6468 177.099 17.7664 177.798 18.0018C178.493 18.2373 179.073 18.5525 179.533 18.9474C179.993 19.3386 180.33 19.7516 180.54 20.1827C180.75 20.6138 180.859 21.034 180.859 21.4434C180.859 21.8165 180.725 22.1571 180.46 22.4577C180.196 22.7584 179.866 22.907 179.468 22.907C179.106 22.907 178.834 22.8164 178.645 22.6353C178.457 22.4541 178.254 22.1607 178.037 21.7513C177.754 21.1644 177.414 20.708 177.019 20.3783C176.624 20.0487 175.986 19.8856 175.11 19.8856C174.298 19.8856 173.643 20.0632 173.143 20.4218C172.643 20.7804 172.396 21.2079 172.396 21.7115C172.396 22.023 172.48 22.2911 172.65 22.5193C172.82 22.7439 173.052 22.9396 173.349 23.1026C173.646 23.2656 173.947 23.3924 174.251 23.483C174.555 23.5735 175.055 23.7076 175.758 23.8851C176.635 24.0916 177.428 24.3162 178.138 24.5625C178.848 24.8089 179.453 25.1096 179.953 25.4646C180.453 25.8196 180.841 26.2652 181.12 26.805C181.399 27.3447 181.54 28.0077 181.54 28.7938L181.533 28.783Z"></path>
<path fill="#086B92" d="M197.127 28.7829C197.127 29.7248 196.885 30.5689 196.399 31.3188C195.914 32.0687 195.207 32.6556 194.273 33.0794C193.338 33.5033 192.233 33.717 190.954 33.717C189.418 33.717 188.154 33.4272 187.158 32.8476C186.451 32.431 185.875 31.8731 185.433 31.1775C184.991 30.482 184.771 29.8045 184.771 29.1452C184.771 28.7648 184.905 28.4351 185.169 28.1634C185.433 27.8917 185.77 27.7541 186.183 27.7541C186.517 27.7541 186.796 27.8591 187.027 28.0729C187.256 28.2866 187.455 28.5982 187.614 29.0184C187.81 29.5147 188.027 29.9277 188.256 30.261C188.484 30.5943 188.81 30.866 189.226 31.0833C189.643 31.3007 190.19 31.4057 190.871 31.4057C191.806 31.4057 192.563 31.1884 193.146 30.7537C193.729 30.3189 194.023 29.7755 194.023 29.1271C194.023 28.6127 193.863 28.1924 193.552 27.87C193.237 27.5476 192.831 27.3012 192.331 27.1346C191.831 26.9643 191.165 26.7832 190.331 26.5948C189.216 26.334 188.281 26.0261 187.527 25.6783C186.774 25.3269 186.176 24.8523 185.734 24.2473C185.292 23.6423 185.071 22.8924 185.071 21.994C185.071 21.0956 185.303 20.3783 185.77 19.7153C186.238 19.0524 186.912 18.5416 187.795 18.1829C188.679 17.8243 189.719 17.6468 190.915 17.6468C191.867 17.6468 192.693 17.7663 193.392 18.0018C194.088 18.2373 194.668 18.5525 195.128 18.9473C195.588 19.3386 195.925 19.7516 196.135 20.1827C196.345 20.6138 196.454 21.034 196.454 21.4434C196.454 21.8165 196.32 22.157 196.055 22.4577C195.791 22.7584 195.461 22.9069 195.063 22.9069C194.7 22.9069 194.429 22.8164 194.24 22.6352C194.052 22.4541 193.849 22.1606 193.632 21.7513C193.349 21.1644 193.009 20.7079 192.614 20.3783C192.219 20.0486 191.581 19.8856 190.704 19.8856C189.893 19.8856 189.237 20.0631 188.737 20.4218C188.237 20.7804 187.991 21.2079 187.991 21.7114C187.991 22.023 188.074 22.2911 188.245 22.5193C188.415 22.7439 188.647 22.9395 188.944 23.1025C189.241 23.2656 189.542 23.3924 189.846 23.4829C190.15 23.5735 190.65 23.7075 191.353 23.885C192.23 24.0915 193.023 24.3161 193.733 24.5625C194.443 24.8088 195.048 25.1095 195.548 25.4645C196.048 25.8196 196.436 26.2652 196.715 26.8049C196.993 27.3447 197.135 28.0077 197.135 28.7938L197.127 28.7829Z"></path>
<path fill="#086B92" d="M166.024 44.5451C170.719 44.1539 175.625 44.0778 180.345 44.0561C185.123 44.0706 189.898 44.1539 194.665 44.5451C189.898 44.9364 185.123 45.0233 180.345 45.0342C175.625 45.0088 170.723 44.9364 166.024 44.5451Z"></path>
<path fill="#086B92" d="M74.5547 44.5452C78.8548 44.1539 83.3506 44.0779 87.6724 44.0561C92.0523 44.0706 96.4248 44.1576 100.79 44.5452C96.4248 44.9364 92.0486 45.0234 87.6724 45.0342C83.347 45.0089 78.8584 44.9364 74.5547 44.5452Z"></path>
<path fill="#086B92" d="M45.5901 36.7141H53.8893C55.063 36.7141 56.1389 36.0584 56.675 35.0114C57.74 32.9284 56.2294 30.4577 53.8893 30.4577H43.6738C42.9855 30.4577 42.3552 30.8417 42.04 31.4539L39.3448 36.7104L38.4646 38.4312C37.9574 39.4238 36.7656 39.6774 35.9143 39.1884C35.581 38.9239 35.5702 38.8877 35.4035 38.6921C34.9833 38.1885 34.9652 37.4676 35.1789 36.8735L35.4542 36.1127L40.9388 25.404C41.2648 24.828 41.8697 24.4694 42.5363 24.4694H53.2807C53.3676 24.4694 53.451 24.4658 53.5343 24.4585H54.1646C55.3383 24.4585 56.4142 23.7992 56.9503 22.7559C58.019 20.6728 56.5047 18.1985 54.1646 18.1985H46.3943L46.3762 18.213H43.0652C42.3769 18.213 41.7466 18.597 41.4314 19.2093L39.171 23.6181L33.7082 34.2905C33.3894 34.5912 33.0743 34.2688 33.0489 34.2434L25.6879 19.8686C25.1663 18.847 24.1157 18.2058 22.971 18.2058C20.6888 18.2058 19.2108 20.6185 20.2541 22.6508L29.5749 40.8403V40.8476C29.5749 40.8476 29.9915 41.5395 29.5858 42.3437L29.0641 43.3617C28.3722 44.4992 26.7348 44.5282 25.9922 43.4486L13.9075 19.8541C13.3858 18.8361 12.3353 18.1913 11.1906 18.1913C8.90838 18.1913 7.43401 20.604 8.47368 22.6363L10.7812 27.1429C10.7921 27.1647 10.803 27.1864 10.8138 27.2118C10.8464 27.2951 10.8827 27.3784 10.9261 27.4617L21.1272 47.372C21.3554 47.8176 21.685 48.1907 22.0799 48.4733C22.587 48.832 23.1992 49.0348 23.8441 49.0348H23.9093H26.1588L26.1842 49.0167H26.9812C28.1259 49.0167 29.1764 48.3755 29.6981 47.3539L30.39 46.0026L30.8319 45.1404C31.1579 44.5717 31.7629 44.2203 32.4222 44.2203H33.288L34.8276 44.1985H36.3164C37.4611 44.1985 38.5117 43.5573 39.0333 42.5357L39.7252 41.1845L41.5147 37.6958C41.8299 37.0836 42.4602 36.696 43.1485 36.696H45.5937L45.5901 36.7141Z"></path>
<path fill="#086B92" d="M53.8935 42.7348H45.5943C44.4206 42.7348 43.3447 43.3905 42.8086 44.4375C41.7435 46.5205 43.2541 48.9912 45.5943 48.9912H53.8935C55.0672 48.9912 56.1431 48.3319 56.6792 47.2885C57.7442 45.2055 56.2336 42.7348 53.8935 42.7348Z"></path>
<mask height="64" width="64" y="2" x="1" maskUnits="userSpaceOnUse" style="mask-type:luminance" id="mask0_397_870">
<path fill="white" d="M32.7192 2.05568C15.284 2.05568 1.14893 16.1914 1.14893 33.6274C1.14893 51.0634 15.284 65.1991 32.7192 65.1991C50.1545 65.1991 64.2895 51.0634 64.2895 33.6274C64.2895 32.805 64.2569 31.9899 64.1954 31.1857C64.2497 32.9826 64.1591 34.7975 63.9563 36.6052C63.1267 44.0209 59.8302 51.0163 54.3131 56.0482C48.4953 61.4387 40.8156 64.3949 33.0815 64.3949C29.5205 64.3949 25.9451 63.7681 22.5363 62.4603C8.95908 57.5335 0.402684 43.0246 2.6414 28.7621C4.6664 14.2859 16.8236 3.44679 31.4369 2.72588C32.107 2.6824 32.7808 2.66067 33.451 2.66067C39.171 2.66067 44.8402 4.19306 49.7197 7.01876C44.8148 3.87789 38.979 2.05568 32.7229 2.05568"></path>
</mask>
<g mask="url(#mask0_397_870)">
</g>
<defs>
<linearGradient gradientUnits="userSpaceOnUse" y2="46.1416" x2="12.633" y1="6.86776" x1="59.2131" id="paint0_linear_397_870">
<stop stop-color="white"></stop>
<stop stop-color="#086B92" offset="0.581519"></stop>
</linearGradient>
</defs>
</svg>
